<?xml version="1.0" encoding="UTF-8"?>
<svg xmlns="http://www.w3.org/2000/svg" xmlns:xlink="http://www.w3.org/1999/xlink" width="120px" height="120px" viewBox="0 0 120 120" version="1.1">
<g id="surface1">
<path style=" stroke:none;fill-rule:nonzero;fill:rgb(25.098039%,26.666667%,30.588235%);fill-opacity:1;" d="M 6 60 L 6 120 L 32 120 L 32 92 C 32 75.199219 32.398438 64 32.898438 64 C 33.800781 64 47.101562 79 73.898438 110.199219 L 82.300781 120 L 120.199219 120 L 114.699219 114 C 93.199219 90.800781 63.5 57.699219 63.199219 56.699219 C 63.101562 56 64.898438 53.199219 67.300781 50.5 C 69.800781 47.699219 77.5 39 84.601562 31 C 107.898438 4.800781 111 1.199219 111 0.601562 C 111 0.300781 103 0 93.300781 0.101562 L 75.5 0.101562 L 66 12.199219 C 60.800781 18.898438 54.898438 26.199219 52.898438 28.398438 C 51 30.699219 48.5 33.699219 47.398438 35.101562 C 42.101562 42.398438 33.800781 52 33 52 C 32.398438 52 32 41.898438 32 26 L 32 0 L 6 0 Z M 6 60 "/>
</g>
</svg>
